<svg width="8" height="8" viewBox="0 0 8 8" fill="none" xmlns="http://www.w3.org/2000/svg">
<path d="M5.03874 5.543C5.0167 5.26295 5.01052 4.982 5.02022 4.70133L5.01986 4.71367C5.28792 4.45364 5.4551 4.11705 5.4947 3.75767L5.49541 3.75067C5.61617 3.74133 5.80675 3.63133 5.86232 3.19533C5.87909 3.12024 5.87277 3.04224 5.84408 2.97038C5.81539 2.89852 5.76552 2.83574 5.70024 2.78933L5.69917 2.78867C5.8958 2.23533 6.30403 0.523333 4.94363 0.346667C4.80363 0.116667 4.44528 0 3.97934 0C2.11524 0.032 1.89046 1.317 2.29798 2.78867C2.23218 2.8355 2.18199 2.8989 2.15329 2.97145C2.12458 3.044 2.11855 3.12269 2.1359 3.19833L2.13554 3.19567C2.19254 3.631 2.38169 3.74167 2.50245 3.751C2.54481 4.11438 2.71731 4.45367 2.9919 4.71367C3.00093 4.99925 2.99403 5.28509 2.97124 5.57L2.97302 5.543C2.60326 6.471 0.113991 6.21033 0 8H8C7.8853 6.21033 5.40778 6.471 5.03874 5.543Z" fill="#3066ED"/>
</svg>
