<svg width="16" height="16" viewBox="0 0 16 16" fill="none" xmlns="http://www.w3.org/2000/svg">
<path d="M7.28855 15.1424C7.96696 15.8209 9.07155 15.8209 9.74996 15.1424L15.1511 9.74126C15.8296 9.06285 15.8296 7.95826 15.1511 7.27986L8.37575 0.504458C8.04536 0.182041 7.60233 0.00108313 7.1407 0L1.73951 0C0.78278 0 0 0.78278 0 1.73951V7.14069C0 7.60167 0.182649 8.04524 0.513156 8.36705L7.28855 15.1424ZM3.69646 2.60927C3.9848 2.60927 4.26134 2.72381 4.46522 2.9277C4.66911 3.13159 4.78366 3.40812 4.78366 3.69646C4.78366 3.9848 4.66911 4.26134 4.46522 4.46522C4.26134 4.66911 3.9848 4.78366 3.69646 4.78366C3.40812 4.78366 3.13159 4.66911 2.9277 4.46522C2.72381 4.26134 2.60927 3.9848 2.60927 3.69646C2.60927 3.40812 2.72381 3.13159 2.9277 2.9277C3.13159 2.72381 3.40812 2.60927 3.69646 2.60927Z" fill="#7EA1F6"/>
</svg>
