<svg width="16" height="4" viewBox="0 0 16 4" fill="none" xmlns="http://www.w3.org/2000/svg">
<path d="M8.00022 4.94392e-08C7.7489 4.41431e-08 7.50004 0.0495007 7.26785 0.145676C7.03567 0.241851 6.8247 0.382818 6.64699 0.560527C6.46928 0.738235 6.32831 0.949206 6.23214 1.18139C6.13596 1.41358 6.08646 1.66244 6.08646 1.91376C6.08646 2.16508 6.13596 2.41393 6.23214 2.64612C6.32831 2.87831 6.46928 3.08928 6.64699 3.26699C6.8247 3.4447 7.03567 3.58566 7.26785 3.68184C7.50004 3.77801 7.7489 3.82751 8.00022 3.82751C8.50778 3.8274 8.9945 3.62566 9.35332 3.26668C9.71214 2.9077 9.91365 2.42088 9.91354 1.91332C9.91342 1.40576 9.71169 0.919037 9.35271 0.560219C8.99372 0.201401 8.50691 -0.000115238 7.99935 4.94392e-08H8.00022ZM1.91376 4.94392e-08C1.66244 4.41431e-08 1.41358 0.0495007 1.18139 0.145676C0.949206 0.241851 0.738235 0.382818 0.560526 0.560527C0.382818 0.738235 0.241851 0.949206 0.145676 1.18139C0.0495008 1.41358 0 1.66244 0 1.91376C0 2.16508 0.0495008 2.41393 0.145676 2.64612C0.241851 2.87831 0.382818 3.08928 0.560526 3.26699C0.738235 3.4447 0.949206 3.58566 1.18139 3.68184C1.41358 3.77801 1.66244 3.82751 1.91376 3.82751C2.42132 3.8274 2.90804 3.62566 3.26686 3.26668C3.62568 2.9077 3.82719 2.42088 3.82708 1.91332C3.82696 1.40576 3.62523 0.919037 3.26625 0.560219C2.90726 0.201401 2.42045 -0.000115238 1.91289 4.94392e-08H1.91376ZM14.0867 4.94392e-08C13.8354 4.41431e-08 13.5865 0.0495007 13.3543 0.145676C13.1221 0.241851 12.9112 0.382818 12.7334 0.560527C12.5557 0.738235 12.4148 0.949206 12.3186 1.18139C12.2224 1.41358 12.1729 1.66244 12.1729 1.91376C12.1729 2.16508 12.2224 2.41393 12.3186 2.64612C12.4148 2.87831 12.5557 3.08928 12.7334 3.26699C12.9112 3.4447 13.1221 3.58566 13.3543 3.68184C13.5865 3.77801 13.8354 3.82751 14.0867 3.82751C14.5942 3.8274 15.081 3.62566 15.4398 3.26668C15.7986 2.9077 16.0001 2.42088 16 1.91332C15.9999 1.40576 15.7981 0.919037 15.4392 0.560219C15.0802 0.201401 14.5934 -0.000115238 14.0858 4.94392e-08H14.0867Z" fill="#3066ED"/>
</svg>
