<svg width="16" height="15" viewBox="0 0 16 15" fill="none" xmlns="http://www.w3.org/2000/svg">
<path d="M12.9714 6.96433C14.6112 5.49015 14.7455 2.96578 13.2713 1.32597C11.9193 -0.17801 9.65618 -0.433511 8.00284 0.731193C6.2005 -0.540787 3.70831 -0.110845 2.43633 1.69146C1.26918 3.34523 1.52364 5.61066 3.02859 6.9643C1.15866 7.95001 -0.00842513 9.89334 4.58028e-05 12.0071V13.7214C4.58028e-05 14.037 0.255881 14.2928 0.571482 14.2928H15.4285C15.7441 14.2928 16 14.037 16 13.7214V12.0071C16.0084 9.89334 14.8413 7.95001 12.9714 6.96433ZM9.02055 6.56091C8.9634 6.53349 8.90628 6.50948 8.85542 6.47861C8.86001 6.47288 8.86285 6.46662 8.86741 6.4609C9.12944 6.1242 9.33602 5.74787 9.47939 5.34605L9.4971 5.29804C9.56229 5.10612 9.61292 4.90958 9.64854 4.71002C9.6537 4.6809 9.65768 4.65287 9.66227 4.62146C9.69532 4.41833 9.71269 4.21298 9.71427 4.00717C9.71263 3.80176 9.69525 3.59678 9.66227 3.39402C9.65768 3.36432 9.6537 3.33686 9.64854 3.30546C9.61292 3.10594 9.56229 2.90936 9.4971 2.71744L9.47939 2.66943C9.33602 2.26761 9.1294 1.89128 8.86741 1.55458C8.86282 1.54886 8.85997 1.5426 8.85542 1.53687C9.28951 1.28355 9.78311 1.15005 10.2857 1.15002C11.8614 1.14828 13.1402 2.42424 13.142 3.99997C13.1433 5.12376 12.4847 6.14359 11.46 6.60484C11.416 6.62483 11.372 6.64311 11.3274 6.66199C11.1864 6.71888 11.041 6.76414 10.8926 6.79743C10.864 6.80372 10.8354 6.80714 10.8063 6.81286C10.6405 6.84463 10.4722 6.86164 10.3034 6.86372C10.2274 6.86372 10.1508 6.85799 10.0748 6.85116C10.0463 6.85116 10.0177 6.85116 9.98912 6.84544C9.66434 6.8072 9.34841 6.71409 9.05484 6.57002C9.04399 6.56489 9.0314 6.56546 9.02055 6.56091ZM14.8571 13.15H11.4285V12.0072C11.4285 11.8283 11.4183 11.6511 11.4023 11.4757C11.3977 11.4243 11.3897 11.3734 11.384 11.322C11.3685 11.1957 11.3508 11.0706 11.3268 10.9466C11.3165 10.8936 11.3057 10.8405 11.2942 10.7871C11.2668 10.6599 11.235 10.5338 11.1988 10.4089C11.1868 10.3677 11.176 10.326 11.1634 10.2854C11.0034 9.77394 10.7715 9.28778 10.4748 8.84147L10.4525 8.80889C10.3543 8.66297 10.2493 8.52185 10.1377 8.38548L10.1337 8.38032C10.0194 8.23862 9.8954 8.10088 9.76513 7.9706C9.77256 7.9706 9.78056 7.9706 9.78856 7.9706C9.94981 7.99179 10.1122 8.00325 10.2749 8.00489H10.3063C10.4568 8.00358 10.6071 7.99384 10.7566 7.97576C10.8034 7.97003 10.8497 7.96146 10.8966 7.95403C11.0181 7.93538 11.1381 7.91117 11.2566 7.88147C11.2903 7.8729 11.3246 7.8649 11.3589 7.85519C11.5143 7.8129 11.667 7.76097 11.816 7.69976C13.6445 8.34017 14.8656 10.0698 14.8571 12.0072V13.15H14.8571Z" fill="#7EA1F6"/>
</svg>
