<svg width="16" height="16" viewBox="0 0 16 16" fill="none" xmlns="http://www.w3.org/2000/svg">
<path d="M8 0C3.584 0 0 3.584 0 8C0 12.416 3.584 16 8 16C12.416 16 16 12.416 16 8C16 3.584 12.416 0 8 0ZM4.8 12.4C4.26957 12.4 3.76086 12.1893 3.38579 11.8142C3.01071 11.4391 2.8 10.9304 2.8 10.4C2.8 9.86957 3.01071 9.36086 3.38579 8.98579C3.76086 8.61071 4.26957 8.4 4.8 8.4C5.33043 8.4 5.83914 8.61071 6.21421 8.98579C6.58929 9.36086 6.8 9.86957 6.8 10.4C6.8 10.9304 6.58929 11.4391 6.21421 11.8142C5.83914 12.1893 5.33043 12.4 4.8 12.4ZM6 4.8C6 4.26957 6.21071 3.76086 6.58579 3.38579C6.96086 3.01071 7.46957 2.8 8 2.8C8.53043 2.8 9.03914 3.01071 9.41421 3.38579C9.78929 3.76086 10 4.26957 10 4.8C10 5.33043 9.78929 5.83914 9.41421 6.21421C9.03914 6.58929 8.53043 6.8 8 6.8C7.46957 6.8 6.96086 6.58929 6.58579 6.21421C6.21071 5.83914 6 5.33043 6 4.8ZM11.2 12.4C10.6696 12.4 10.1609 12.1893 9.78579 11.8142C9.41071 11.4391 9.2 10.9304 9.2 10.4C9.2 9.86957 9.41071 9.36086 9.78579 8.98579C10.1609 8.61071 10.6696 8.4 11.2 8.4C11.7304 8.4 12.2391 8.61071 12.6142 8.98579C12.9893 9.36086 13.2 9.86957 13.2 10.4C13.2 10.9304 12.9893 11.4391 12.6142 11.8142C12.2391 12.1893 11.7304 12.4 11.2 12.4Z" fill="#7EA1F6"/>
</svg>
