<svg width="18" height="18" viewBox="0 0 18 18" fill="none" xmlns="http://www.w3.org/2000/svg">
<path d="M9 0C4.02943 0 0 4.02943 0 9C0 13.9706 4.02943 18 9 18C13.9706 18 18 13.9706 18 9C18 4.02943 13.9706 0 9 0ZM9 3.0487C11.4778 3.0487 13.4868 5.05776 13.4868 7.53552C13.4868 8.28607 13.2811 9.27689 12.8584 9.83714L9 14.9513L5.14159 9.83716C4.67616 9.22032 4.51317 8.36418 4.51317 7.53555C4.51318 5.05776 6.52222 3.0487 9 3.0487ZM9 5.64807C7.95745 5.64807 7.11255 6.49298 7.11255 7.53552C7.11255 8.57806 7.95745 9.42297 9 9.42297C10.0425 9.42297 10.8875 8.57806 10.8875 7.53552C10.8875 6.49298 10.0425 5.64807 9 5.64807Z" fill="#7EA1F6"/>
</svg>
