<svg width="16" height="14" viewBox="0 0 16 14" fill="none" xmlns="http://www.w3.org/2000/svg">
<path d="M9.90476 10.6667V12.1905C9.90476 12.5946 9.74422 12.9822 9.45845 13.268C9.17268 13.5537 8.78509 13.7143 8.38095 13.7143H1.52381C1.11967 13.7143 0.732083 13.5537 0.446313 13.268C0.160544 12.9822 0 12.5946 0 12.1905V1.52381C0 1.11967 0.160544 0.732083 0.446313 0.446313C0.732083 0.160544 1.11967 0 1.52381 0H8.38095C8.78509 0 9.17268 0.160544 9.45845 0.446313C9.74422 0.732083 9.90476 1.11967 9.90476 1.52381V3.04762H8.38095V1.52381H1.52381V12.1905H8.38095V10.6667H9.90476ZM11.8095 2.66667L10.7322 3.744L13.0834 6.09524H5.33333V7.61905H13.0834L10.7322 9.97029L11.8095 11.0476L16 6.85714L11.8095 2.66667Z" fill="white"/>
</svg>
