<svg width="17" height="16" viewBox="0 0 17 16" fill="none" xmlns="http://www.w3.org/2000/svg">
<path d="M14.9893 16H2.98926C2.43717 16 1.96582 15.8047 1.5752 15.4141C1.18457 15.0234 0.989258 14.5521 0.989258 14V2C0.989258 1.44792 1.18457 0.976562 1.5752 0.585938C1.96582 0.195312 2.43717 0 2.98926 0H14.9893C15.5413 0 16.0127 0.195312 16.4033 0.585938C16.7939 0.976562 16.9893 1.44792 16.9893 2V14C16.9893 14.5521 16.7939 15.0234 16.4033 15.4141C16.0127 15.8047 15.5413 16 14.9893 16ZM5.98926 11.5C5.98926 11.3646 5.93978 11.2474 5.84082 11.1484C5.74186 11.0495 5.62467 11 5.48926 11H4.48926C4.35384 11 4.23665 11.0495 4.1377 11.1484C4.03874 11.2474 3.98926 11.3646 3.98926 11.5V13.5C3.98926 13.6354 4.03874 13.7526 4.1377 13.8516C4.23665 13.9505 4.35384 14 4.48926 14H5.48926C5.62467 14 5.74186 13.9505 5.84082 13.8516C5.93978 13.7526 5.98926 13.6354 5.98926 13.5V11.5ZM9.98926 7.5C9.98926 7.36458 9.93978 7.2474 9.84082 7.14844C9.74186 7.04948 9.62467 7 9.48926 7H8.48926C8.35384 7 8.23665 7.04948 8.1377 7.14844C8.03874 7.2474 7.98926 7.36458 7.98926 7.5V13.5C7.98926 13.6354 8.03874 13.7526 8.1377 13.8516C8.23665 13.9505 8.35384 14 8.48926 14H9.48926C9.62467 14 9.74186 13.9505 9.84082 13.8516C9.93978 13.7526 9.98926 13.6354 9.98926 13.5V7.5ZM13.9893 2.5C13.9893 2.36458 13.9398 2.2474 13.8408 2.14844C13.7419 2.04948 13.6247 2 13.4893 2H12.4893C12.3538 2 12.2367 2.04948 12.1377 2.14844C12.0387 2.2474 11.9893 2.36458 11.9893 2.5V13.5C11.9893 13.6354 12.0387 13.7526 12.1377 13.8516C12.2367 13.9505 12.3538 14 12.4893 14H13.4893C13.6247 14 13.7419 13.9505 13.8408 13.8516C13.9398 13.7526 13.9893 13.6354 13.9893 13.5V2.5Z" fill="#7EA1F6"/>
</svg>
