<svg width="17" height="17" viewBox="0 0 17 17" fill="none" xmlns="http://www.w3.org/2000/svg">
<path d="M16.7644 15.6624L11.5705 10.4685C12.3765 9.42646 12.8124 8.15247 12.8124 6.81247C12.8124 5.20848 12.1865 3.70449 11.0545 2.57049C9.92246 1.4365 8.41447 0.8125 6.81247 0.8125C5.21048 0.8125 3.70249 1.4385 2.57049 2.57049C1.4365 3.70249 0.8125 5.20848 0.8125 6.81247C0.8125 8.41447 1.4385 9.92246 2.57049 11.0545C3.70249 12.1885 5.20848 12.8124 6.81247 12.8124C8.15247 12.8124 9.42446 12.3765 10.4665 11.5725L15.6604 16.7644C15.6757 16.7797 15.6937 16.7918 15.7137 16.8C15.7336 16.8083 15.7549 16.8125 15.7764 16.8125C15.798 16.8125 15.8193 16.8083 15.8392 16.8C15.8591 16.7918 15.8772 16.7797 15.8924 16.7644L16.7644 15.8944C16.7797 15.8792 16.7918 15.8611 16.8 15.8412C16.8083 15.8213 16.8125 15.8 16.8125 15.7784C16.8125 15.7569 16.8083 15.7356 16.8 15.7157C16.7918 15.6958 16.7797 15.6777 16.7644 15.6624ZM9.98046 9.98046C9.13246 10.8265 8.00847 11.2925 6.81247 11.2925C5.61648 11.2925 4.49248 10.8265 3.64449 9.98046C2.79849 9.13246 2.33249 8.00847 2.33249 6.81247C2.33249 5.61648 2.79849 4.49048 3.64449 3.64449C4.49248 2.79849 5.61648 2.33249 6.81247 2.33249C8.00847 2.33249 9.13446 2.79649 9.98046 3.64449C10.8265 4.49248 11.2925 5.61648 11.2925 6.81247C11.2925 8.00847 10.8265 9.13446 9.98046 9.98046Z" fill="#7EA1F6"/>
</svg>
